<svg width="36" height="36" viewBox="0 0 36 36" fill="none" xmlns="http://www.w3.org/2000/svg">
<path d="M24.534 2.18555L29.3408 7.47305L25.6764 11.5057L20.8696 6.21815L24.534 2.18555ZM6.92822 26.8394H11.735L23.4108 13.9961L18.604 8.70857L6.92822 21.5519V26.8394Z" fill="#AAD597"/>
<path d="M26.8273 29.0846H9.27742C9.23534 29.0846 9.19163 29.1008 9.14955 29.1008C9.09613 29.1008 9.04271 29.0862 8.98768 29.0846H4.1656V6.42293H15.2488L18.4861 3.18555H4.1656C2.38019 3.18555 0.928223 4.63589 0.928223 6.42293V29.0846C0.928223 30.8716 2.38019 32.322 4.1656 32.322H26.8273C27.6859 32.322 28.5093 31.9809 29.1164 31.3738C29.7236 30.7666 30.0646 29.9432 30.0646 29.0846V15.0538L26.8273 18.2912V29.0846Z" fill="#AAD597"/>
</svg>
