<svg width="36" height="36" viewBox="0 0 36 36" fill="none" xmlns="http://www.w3.org/2000/svg">
<path d="M17.9762 2.99576C9.70262 2.99576 2.99601 9.70237 2.99601 17.9759C2.99601 26.2494 9.70262 32.9561 17.9762 32.9561C26.2497 32.9561 32.9563 26.2494 32.9563 17.9759C32.9563 9.70237 26.2497 2.99576 17.9762 2.99576Z" stroke="#3E3E3E" stroke-width="2.71718"/>
<path d="M17.9762 2.99576C9.70262 2.99576 2.99601 9.70237 2.99601 17.9759C2.99601 26.2494 9.70262 32.9561 17.9762 32.9561C26.2497 32.9561 32.9563 26.2494 32.9563 17.9759C32.9563 9.70237 26.2497 2.99576 17.9762 2.99576Z" stroke="#3E3E3E" stroke-width="2.71718" stroke-linejoin="round"/>
<path d="M11.2352 15.7287L17.9762 22.4697L24.7173 15.7287" stroke="#3E3E3E" stroke-width="2.71718" stroke-linecap="round" stroke-linejoin="round"/>
</svg>
