<svg width="37" height="37" viewBox="0 0 37 37" fill="none" xmlns="http://www.w3.org/2000/svg">
<path d="M18.4993 3.361C10.2258 3.361 3.5192 10.0676 3.5192 18.3411C3.5192 26.6147 10.2258 33.3213 18.4993 33.3213C26.7729 33.3213 33.4795 26.6147 33.4795 18.3411C33.4795 10.0676 26.7729 3.361 18.4993 3.361Z" stroke="#3E3E3E" stroke-width="2.71718"/>
<path d="M18.4993 3.361C10.2258 3.361 3.5192 10.0676 3.5192 18.3411C3.5192 26.6147 10.2258 33.3213 18.4993 33.3213C26.7729 33.3213 33.4795 26.6147 33.4795 18.3411C33.4795 10.0676 26.7729 3.361 18.4993 3.361Z" stroke="#3E3E3E" stroke-width="2.71718" stroke-linejoin="round"/>
<path d="M11.7583 16.0939L18.4994 22.835L25.2405 16.0939" stroke="#3E3E3E" stroke-width="2.71718" stroke-linecap="round" stroke-linejoin="round"/>
</svg>
