<svg width="24" height="24" viewBox="0 0 24 24" fill="none" xmlns="http://www.w3.org/2000/svg">
<path d="M11.9388 0.729248C5.6138 0.729248 0.480469 5.86258 0.480469 12.1876C0.480469 18.5126 5.6138 23.6459 11.9388 23.6459C18.2638 23.6459 23.3971 18.5126 23.3971 12.1876C23.3971 5.86258 18.2638 0.729248 11.9388 0.729248ZM17.2555 8.52091C17.0836 10.3313 16.3388 14.7313 15.9607 16.7595C15.8003 17.6188 15.4794 17.9053 15.1815 17.9397C14.5169 17.997 14.0128 17.5042 13.3711 17.0803C12.3628 16.4157 11.7898 16.0032 10.8159 15.3615C9.68151 14.6167 10.4148 14.2042 11.068 13.5397C11.2398 13.3678 14.1732 10.698 14.2305 10.4574C14.2384 10.4209 14.2374 10.3831 14.2274 10.3471C14.2174 10.3112 14.1988 10.2782 14.1732 10.2511C14.1044 10.1938 14.0128 10.2167 13.9326 10.2282C13.8294 10.2511 12.2253 11.3167 9.09714 13.4251C8.6388 13.7345 8.2263 13.8949 7.85963 13.8834C7.44713 13.872 6.66797 13.6542 6.08359 13.4595C5.36172 13.2303 4.80026 13.1042 4.84609 12.7032C4.86901 12.497 5.15547 12.2907 5.69401 12.073C9.03984 10.6178 11.2628 9.65529 12.3742 9.19696C15.5596 7.86779 16.2128 7.63862 16.6482 7.63862C16.7398 7.63862 16.9576 7.66154 17.0951 7.77612C17.2096 7.86779 17.244 7.99383 17.2555 8.0855C17.244 8.15425 17.2669 8.3605 17.2555 8.52091Z" fill="white"/>
</svg>
