<svg width="25" height="15" viewBox="0 0 25 15" fill="none" xmlns="http://www.w3.org/2000/svg">
<path d="M23.5033 14.4984H20.8885C19.8996 14.4984 19.6017 13.6975 17.8291 11.9238C16.2799 10.4307 15.6257 10.2451 15.2338 10.2451C14.6918 10.2451 14.544 10.3941 14.544 11.14V13.4913C14.544 14.1272 14.3378 14.4996 12.6763 14.4996C11.0644 14.3913 9.50138 13.9016 8.11585 13.0709C6.73032 12.2402 5.56197 11.0922 4.70703 9.72146C2.67778 7.19447 1.26542 4.2293 0.582031 1.06125C0.582031 0.669379 0.73099 0.314171 1.47807 0.314171H4.09057C4.76203 0.314171 5.0038 0.613234 5.26734 1.30417C6.53578 5.0373 8.70026 8.28459 9.57911 8.28459C9.91599 8.28459 10.0627 8.13563 10.0627 7.29573V3.45032C9.95151 1.69605 9.01995 1.54823 9.01995 0.913442C9.03173 0.745968 9.10834 0.589685 9.2335 0.477788C9.35866 0.365891 9.52252 0.307196 9.69026 0.314171H13.7969C14.3584 0.314171 14.544 0.593754 14.544 1.26521V6.45584C14.544 7.01615 14.7846 7.20178 14.9542 7.20178C15.2911 7.20178 15.5501 7.01615 16.1677 6.39969C17.491 4.78482 18.5725 2.98615 19.3783 1.06011C19.4604 0.828609 19.6161 0.630411 19.8216 0.495887C20.0271 0.361363 20.2711 0.297933 20.5161 0.315317H23.1297C23.9135 0.315317 24.0796 0.707192 23.9135 1.26636C22.9626 3.39566 21.7864 5.41698 20.4049 7.29573C20.1231 7.72542 20.0108 7.94886 20.4049 8.45302C20.6639 8.8449 21.5806 9.61032 22.1959 10.3379C23.0919 11.2317 23.8356 12.2652 24.3982 13.3973C24.6228 14.126 24.2492 14.4984 23.5033 14.4984Z" fill="white"/>
</svg>
