<svg width="24" height="24" viewBox="0 0 24 24" fill="none" xmlns="http://www.w3.org/2000/svg">
<path d="M6.7513 0.729248H16.3763C20.043 0.729248 23.0221 3.70841 23.0221 7.37508V17.0001C23.0221 18.7627 22.322 20.4531 21.0756 21.6994C19.8293 22.9457 18.1389 23.6459 16.3763 23.6459H6.7513C3.08464 23.6459 0.105469 20.6667 0.105469 17.0001V7.37508C0.105469 5.6125 0.805653 3.9221 2.05199 2.67577C3.29832 1.42943 4.98872 0.729248 6.7513 0.729248ZM6.52213 3.02091C5.42812 3.02091 4.37891 3.45551 3.60532 4.2291C2.83173 5.00269 2.39714 6.0519 2.39714 7.14591V17.2292C2.39714 19.5095 4.24193 21.3542 6.52213 21.3542H16.6055C17.6995 21.3542 18.7487 20.9197 19.5223 20.1461C20.2959 19.3725 20.7305 18.3233 20.7305 17.2292V7.14591C20.7305 4.86571 18.8857 3.02091 16.6055 3.02091H6.52213ZM17.5794 4.73966C17.9593 4.73966 18.3236 4.89057 18.5922 5.15917C18.8608 5.42778 19.0117 5.79209 19.0117 6.17196C19.0117 6.55182 18.8608 6.91613 18.5922 7.18474C18.3236 7.45335 17.9593 7.60425 17.5794 7.60425C17.1996 7.60425 16.8352 7.45335 16.5666 7.18474C16.298 6.91613 16.1471 6.55182 16.1471 6.17196C16.1471 5.79209 16.298 5.42778 16.5666 5.15917C16.8352 4.89057 17.1996 4.73966 17.5794 4.73966ZM11.5638 6.45841C13.0833 6.45841 14.5405 7.06202 15.6149 8.13645C16.6894 9.21088 17.293 10.6681 17.293 12.1876C17.293 13.7071 16.6894 15.1643 15.6149 16.2387C14.5405 17.3131 13.0833 17.9167 11.5638 17.9167C10.0443 17.9167 8.5871 17.3131 7.51267 16.2387C6.43824 15.1643 5.83463 13.7071 5.83463 12.1876C5.83463 10.6681 6.43824 9.21088 7.51267 8.13645C8.5871 7.06202 10.0443 6.45841 11.5638 6.45841ZM11.5638 8.75008C10.6521 8.75008 9.77778 9.11224 9.13312 9.7569C8.48847 10.4016 8.1263 11.2759 8.1263 12.1876C8.1263 13.0993 8.48847 13.9736 9.13312 14.6183C9.77778 15.2629 10.6521 15.6251 11.5638 15.6251C12.4755 15.6251 13.3498 15.2629 13.9945 14.6183C14.6391 13.9736 15.0013 13.0993 15.0013 12.1876C15.0013 11.2759 14.6391 10.4016 13.9945 9.7569C13.3498 9.11224 12.4755 8.75008 11.5638 8.75008Z" fill="white"/>
</svg>
