<svg width="24" height="17" viewBox="0 0 24 17" fill="none" xmlns="http://www.w3.org/2000/svg">
<path d="M10.0221 11.6251L15.969 8.18758L10.0221 4.75008V11.6251ZM23.268 2.65321C23.4169 3.19175 23.5201 3.91362 23.5888 4.83029C23.669 5.74696 23.7034 6.53758 23.7034 7.22508L23.7721 8.18758C23.7721 10.697 23.5888 12.5417 23.268 13.722C22.9815 14.7532 22.3169 15.4178 21.2857 15.7042C20.7471 15.8532 19.7617 15.9563 18.2492 16.0251C16.7596 16.1053 15.3961 16.1397 14.1357 16.1397L12.3138 16.2084C7.51276 16.2084 4.52214 16.0251 3.34193 15.7042C2.31068 15.4178 1.64609 14.7532 1.35964 13.722C1.21068 13.1834 1.10755 12.4615 1.0388 11.5449C0.958594 10.6282 0.924219 9.83758 0.924219 9.15008L0.855469 8.18758C0.855469 5.67821 1.0388 3.83341 1.35964 2.65321C1.64609 1.62196 2.31068 0.957373 3.34193 0.670915C3.88047 0.521956 4.86589 0.418831 6.37839 0.350081C7.86797 0.269873 9.23151 0.235498 10.4919 0.235498L12.3138 0.166748C17.1148 0.166748 20.1055 0.350081 21.2857 0.670915C22.3169 0.957373 22.9815 1.62196 23.268 2.65321Z" fill="white"/>
</svg>
